<?xml version="1.0" encoding="UTF-8" standalone="no"?>
<!DOCTYPE svg PUBLIC "-//W3C//DTD SVG 1.1//EN" "http://www.w3.org/Graphics/SVG/1.1/DTD/svg11.dtd">
<!-- Created with Vectornator (http://vectornator.io/) -->
<svg height="100%" stroke-miterlimit="10" style="fill-rule:nonzero;clip-rule:evenodd;stroke-linecap:round;stroke-linejoin:round;" version="1.1" viewBox="0 0 1024 1024" width="100%" xml:space="preserve" xmlns="http://www.w3.org/2000/svg" xmlns:vectornator="http://vectornator.io" xmlns:xlink="http://www.w3.org/1999/xlink">
<defs/>
<g id="レイヤー-1" vectornator:layerName="レイヤー 1">
<path d="M672.97 559.1C652.266 457.653 547.714 337.573 432.809 311.694C313.764 284.779 233.021 283.744 139.855 346.89C111.905 365.523 66.3575 396.578 22.8802 444.196L22.8802 601.543C83.9554 469.04 222.669 359.312 377.945 398.648C641.914 465.935 599.472 652.266 568.417 727.834C511.482 863.442 302.377 922.447 237.161 793.05C166.769 652.266 323.081 628.457 323.081 628.457C323.081 628.457 282.709 667.794 333.432 719.552C368.628 755.784 435.915 722.658 459.724 659.512C480.427 603.613 435.915 527.01 339.643 518.729C258.9 511.482 137.785 572.558 125.362 696.779C113.975 813.753 165.734 862.406 242.337 914.165C317.905 965.924 479.392 985.592 572.558 894.497C671.934 796.155 700.919 694.708 672.97 559.1M22.8802 8.38772L22.8802 316.87C69.463 276.498 107.764 255.794 108.8 254.759C277.533 157.453 425.563 205.071 512.518 233.021C650.196 276.498 758.889 385.191 805.472 496.99C860.336 626.387 812.718 874.829 628.457 1000.08C620.176 1005.26 611.894 1010.44 604.648 1014.58L1001.12 1014.58L1001.12 8.38772L22.8802 8.38772ZM22.8802 848.949L22.8802 967.994C29.0912 973.17 35.3023 977.311 40.4781 981.452C35.3023 979.381 29.0912 976.276 22.8802 973.17L22.8802 1015.61L194.719 1015.61C182.297 1008.37 169.875 1002.16 160.558 994.909C109.835 958.678 54.9706 910.025 22.8802 848.949Z" fill="#f47836" fill-rule="nonzero" opacity="1" stroke="none" vectornator:layerName="path"/>
</g>
</svg>
